<svg width="16" height="16" viewBox="0 0 16 16" fill="none" xmlns="http://www.w3.org/2000/svg">
<path d="M7.99996 0.934204C4.09829 0.934204 0.934204 4.09829 0.934204 7.99996C0.934204 9.63026 1.49257 11.1296 2.41974 12.3256L1.27888 14.8934L4.07761 13.8766C5.20123 14.628 6.5489 15.0657 7.99996 15.0657C11.9016 15.0657 15.0657 11.9016 15.0657 7.99996C15.0657 4.09829 11.9016 0.934204 7.99996 0.934204Z" stroke="black" stroke-miterlimit="10" stroke-linecap="round" stroke-linejoin="round"/>
<path d="M9.28566 9.14773L8.39296 9.81984C7.35894 9.26836 6.7213 8.63072 6.17672 7.60705L6.82815 6.73848L6.75922 4.6739C6.75922 4.32233 6.47314 4.03625 6.12157 4.03625H4.66706C4.3155 4.03625 4.02942 4.32233 4.02942 4.6739C4.02942 8.69276 7.30035 11.9637 11.3192 11.9637C11.6708 11.9637 11.9569 11.6776 11.9569 11.3261V9.87499C11.9569 9.52342 11.6708 9.23734 11.3192 9.23734L9.28566 9.14773Z" stroke="black" stroke-miterlimit="10" stroke-linecap="round" stroke-linejoin="round"/>
</svg>
